<?xml version="1.0" standalone="no"?>
<!DOCTYPE svg PUBLIC "-//W3C//DTD SVG 20010904//EN"
 "http://www.w3.org/TR/2001/REC-SVG-20010904/DTD/svg10.dtd">
<svg version="1.0" xmlns="http://www.w3.org/2000/svg"
 width="600.000000pt" height="600.000000pt" viewBox="0 0 600.000000 600.000000"
 preserveAspectRatio="xMidYMid meet">
<metadata>
Created by potrace 1.14, written by Peter Selinger 2001-2017
</metadata>
<g transform="translate(0.000000,600.000000) scale(0.100000,-0.100000)"
fill="#000000" stroke="none">
<path d="M3580 4860 c0 -3 -10 -6 -23 -8 -45 -3 -127 -48 -127 -69 0 -5 -16
-25 -36 -44 -19 -18 -45 -51 -57 -71 -11 -21 -24 -38 -29 -38 -4 0 -8 -5 -8
-10 0 -6 -9 -23 -21 -39 -11 -15 -22 -36 -23 -47 -2 -10 -9 -18 -14 -17 -6 2
-9 -3 -6 -11 8 -22 -14 -29 -32 -11 -32 31 -66 48 -100 50 -19 0 -34 -3 -34
-8 0 -4 -5 -5 -10 -2 -6 4 -9 1 -8 -7 2 -8 -4 -12 -14 -10 -10 2 -18 -2 -18
-8 0 -6 -5 -8 -12 -4 -7 4 -8 3 -4 -5 5 -8 12 -9 20 -2 8 7 12 5 12 -8 0 -11
-9 -18 -23 -19 -13 -1 -23 2 -23 6 0 5 -7 9 -15 9 -8 0 -12 -4 -9 -9 3 -4 -2
-8 -11 -8 -10 0 -13 -5 -9 -12 4 -7 3 -8 -4 -4 -7 4 -12 13 -12 21 0 7 -7 15
-14 18 -10 4 -13 1 -9 -9 5 -14 -14 -17 -27 -4 -20 20 -52 43 -46 33 5 -9 2
-11 -8 -7 -9 3 -13 11 -9 17 3 6 1 7 -5 3 -6 -4 -41 23 -79 60 -37 37 -84 78
-103 93 -19 14 -37 28 -40 31 -15 17 -62 40 -79 40 -11 0 -22 4 -25 8 -3 5
-18 10 -33 11 -15 1 -41 3 -58 5 -67 7 -155 -51 -183 -120 -18 -42 -17 -186 1
-264 12 -51 51 -159 71 -199 39 -74 39 -81 8 -81 -21 0 -24 -2 -12 -10 8 -5
10 -10 3 -10 -6 0 -10 -11 -8 -25 1 -16 -3 -25 -11 -25 -8 0 -14 -5 -14 -11 0
-5 -5 -7 -10 -4 -6 3 -13 -1 -16 -9 -3 -9 -10 -13 -15 -10 -5 3 -15 2 -21 -3
-16 -9 -20 -10 -59 -12 -21 -1 -28 -5 -23 -13 6 -10 4 -10 -8 0 -13 10 -18 10
-24 1 -5 -8 -3 -9 7 -4 12 8 12 6 0 -9 -11 -13 -16 -14 -22 -4 -7 10 -9 9 -9
-4 0 -10 -7 -19 -15 -19 -31 -3 -35 -4 -34 -13 0 -5 -5 -13 -13 -17 -10 -7 -9
-9 5 -9 10 0 16 -4 12 -10 -3 -5 -12 -7 -20 -4 -21 9 -40 -6 -24 -18 10 -7 8
-8 -6 -3 -11 4 -27 8 -35 8 -8 0 -18 5 -23 11 -4 6 -5 -2 -3 -17 3 -16 10 -34
15 -41 9 -10 3 -12 -23 -11 -28 2 -33 0 -29 -16 3 -11 0 -19 -6 -19 -7 0 -10
4 -6 9 3 5 0 13 -6 17 -7 4 -9 3 -5 -4 3 -6 -2 -16 -11 -22 -16 -11 -16 -11 2
-6 18 6 18 5 3 -7 -15 -12 -15 -14 0 -23 14 -9 14 -11 -2 -17 -12 -5 -15 -3
-10 6 5 9 4 9 -6 0 -16 -15 -23 -46 -9 -37 5 3 6 10 3 16 -4 7 -2 8 5 4 6 -4
9 -12 5 -17 -3 -5 0 -17 8 -26 11 -14 11 -16 -2 -8 -26 16 -47 15 -26 -1 17
-12 17 -14 4 -14 -9 0 -19 -4 -22 -9 -4 -5 3 -7 14 -4 12 3 20 0 20 -6 0 -7
-4 -9 -10 -6 -5 3 -10 1 -10 -4 0 -6 6 -11 13 -11 9 0 8 -3 -2 -9 -11 -7 -11
-9 0 -14 10 -4 7 -8 -9 -13 -17 -5 -20 -10 -12 -19 8 -10 6 -13 -6 -11 -9 0
-19 -5 -22 -13 -3 -10 0 -11 9 -5 12 7 12 5 1 -9 -8 -9 -11 -21 -7 -27 4 -7
-32 -51 -86 -106 -178 -178 -196 -203 -176 -234 7 -13 8 -32 1 -62 -12 -56 -7
-89 16 -95 12 -3 21 -18 25 -44 8 -47 13 -51 54 -39 29 8 31 7 31 -18 0 -32
10 -47 30 -47 8 0 14 -8 14 -17 -1 -10 3 -18 10 -18 6 0 4 -5 -4 -10 -11 -7
-11 -10 -2 -10 7 0 10 -4 7 -10 -3 -5 -1 -10 5 -10 6 0 9 -4 6 -9 -3 -5 1 -12
9 -15 12 -4 13 -10 6 -25 -6 -10 -7 -21 -4 -25 3 -3 -2 -6 -13 -6 -16 0 -17
-2 -4 -10 13 -9 13 -10 0 -11 -8 -1 -18 -1 -21 -1 -3 1 -6 -5 -6 -13 0 -8 4
-12 9 -9 4 3 8 0 8 -5 0 -10 -13 -14 -52 -14 -11 0 -14 -5 -10 -16 5 -13 3
-14 -10 -3 -13 11 -16 10 -14 -5 1 -12 -5 -17 -18 -15 -11 2 -15 -1 -11 -8 4
-7 -6 -5 -23 4 -16 8 -33 12 -38 8 -5 -4 -2 1 5 11 17 21 8 22 -13 1 -13 -13
-16 -13 -16 -1 0 10 -8 13 -25 10 -19 -4 -25 0 -31 21 -3 14 -9 26 -13 26 -4
0 -15 16 -25 36 -15 32 -31 39 -31 13 0 -5 -4 -10 -10 -11 -5 -1 -18 -11 -27
-22 l-17 -21 -2 23 c-1 12 -3 31 -4 42 -1 11 -3 26 -4 33 0 7 -18 31 -38 53
-20 21 -33 34 -30 28 4 -7 0 -17 -8 -24 -8 -7 -12 -17 -8 -23 4 -7 0 -8 -11
-4 -10 4 -20 7 -22 7 -3 0 -2 5 1 10 12 19 -4 10 -35 -20 -16 -16 -30 -33 -30
-38 0 -5 -10 -20 -23 -34 -25 -27 -35 -86 -15 -93 7 -3 13 -20 12 -38 0 -17 5
-46 12 -64 7 -17 10 -34 6 -37 -3 -3 0 -6 7 -6 7 0 9 -4 6 -10 -3 -6 -1 -10 5
-10 6 0 8 -5 5 -11 -4 -6 1 -17 11 -25 18 -13 17 -13 -6 -5 -24 8 -26 7 -28
-22 -3 -38 -10 -46 -23 -27 -9 12 -10 11 -6 -6 4 -18 1 -21 -17 -17 -12 3 -17
1 -11 -4 6 -4 11 -14 13 -21 2 -10 -2 -10 -20 -1 l-23 12 20 -22 c14 -16 15
-22 5 -19 -8 2 -15 -4 -15 -12 0 -8 -4 -18 -10 -22 -6 -5 -5 -8 3 -8 6 0 12
-4 12 -10 0 -5 -6 -9 -12 -7 -7 1 -14 -8 -16 -21 -2 -12 -8 -20 -13 -17 -15
10 -10 -7 8 -28 10 -11 13 -18 8 -14 -6 3 -17 2 -25 -4 -9 -5 -10 -9 -3 -9 20
0 20 -34 -2 -54 l-20 -18 21 6 c14 4 21 2 21 -8 0 -9 -6 -12 -16 -8 -13 5 -14
3 -3 -10 7 -9 11 -22 10 -29 -2 -8 5 -13 15 -12 17 1 16 -2 -5 -25 -13 -15
-19 -24 -14 -20 17 14 36 -12 26 -37 -8 -20 -6 -23 11 -20 16 3 18 1 9 -16 -7
-13 -7 -19 0 -19 5 0 10 -6 10 -14 0 -7 8 -20 17 -27 11 -10 14 -10 9 -1 -4 7
-2 12 4 12 7 0 9 -8 5 -22 -6 -17 -4 -20 10 -14 15 5 16 4 5 -9 -8 -10 -9 -15
-1 -15 6 0 11 -5 11 -11 0 -19 26 -39 38 -27 6 6 12 6 17 -3 5 -7 4 -10 -2 -6
-6 4 -16 0 -23 -8 -10 -12 -8 -13 9 -10 12 2 19 0 16 -6 -9 -14 5 -50 17 -43
6 4 9 1 6 -7 -3 -8 4 -20 16 -27 17 -11 18 -12 2 -7 -16 5 -17 3 -6 -10 7 -8
16 -12 21 -9 5 3 9 0 9 -7 0 -17 41 -50 54 -43 6 3 4 0 -4 -8 -13 -11 -12 -16
9 -38 13 -14 20 -19 16 -11 -5 9 -4 12 3 8 5 -4 8 -17 4 -29 -3 -14 -1 -19 6
-14 7 4 10 2 7 -7 -3 -7 3 -24 15 -37 11 -13 20 -27 20 -31 0 -5 8 -5 18 -2
14 6 15 4 6 -8 -9 -11 -9 -17 2 -27 9 -8 14 -9 14 -2 0 7 5 6 14 -2 8 -7 11
-17 8 -22 -3 -5 0 -6 7 -2 6 4 18 0 27 -8 9 -9 11 -16 4 -16 -6 0 7 -18 28
-39 27 -28 36 -43 29 -50 -7 -7 -4 -9 12 -6 19 3 21 2 11 -10 -9 -11 -9 -15
-1 -15 6 0 11 -7 11 -16 0 -8 5 -12 10 -9 5 3 10 2 10 -3 0 -5 6 -9 13 -10 53
-6 62 -9 60 -19 -1 -6 6 -9 16 -6 12 3 25 -4 35 -18 9 -13 16 -17 16 -10 0 8
6 11 16 7 15 -6 15 -4 3 10 -13 16 -12 16 9 5 13 -7 30 -10 38 -7 8 3 14 0 14
-8 0 -7 7 -13 15 -13 9 0 11 4 6 11 -6 7 -1 11 15 11 13 0 24 -5 24 -12 0 -6
4 -15 10 -18 6 -4 7 1 3 12 -6 15 -4 16 8 6 12 -10 18 -10 27 -1 9 9 12 9 12
-2 1 -11 3 -10 11 3 8 14 14 15 30 6 17 -9 18 -13 7 -27 -12 -15 -11 -16 5 -3
10 8 15 21 12 30 -4 13 -2 12 9 -2 7 -9 19 -17 25 -17 7 0 9 -5 5 -12 -5 -7
-3 -8 5 -4 7 5 10 15 6 24 -4 12 -1 12 16 -4 22 -18 22 -18 15 0 -5 15 -4 17
8 7 7 -6 20 -9 29 -5 8 3 18 1 22 -5 4 -7 -1 -9 -12 -5 -15 5 -15 4 -3 -4 18
-13 33 -5 26 14 -3 8 -3 14 0 14 2 0 9 -10 14 -22 5 -14 9 -17 9 -8 1 11 11
16 30 15 21 0 27 -4 23 -15 -4 -12 -2 -12 8 -3 7 6 19 9 26 6 10 -4 13 0 8 13
-3 11 2 7 12 -7 l17 -27 19 22 c11 11 16 15 12 7 -5 -11 -3 -13 9 -8 16 6 22
-4 18 -27 -1 -5 5 -4 13 4 19 15 21 24 4 14 -7 -4 -9 -3 -5 1 10 11 39 16 32
5 -8 -12 49 -20 60 -8 7 8 6 9 -2 4 -7 -4 -20 -3 -28 1 -9 5 4 8 35 8 31 0 50
-4 50 -12 0 -7 9 -9 28 -4 19 5 31 3 40 -8 12 -14 13 -14 8 2 -4 11 -2 16 5
12 5 -4 18 -1 27 6 14 11 15 11 5 -1 -20 -22 -16 -26 27 -26 22 0 40 5 40 10
0 5 7 1 15 -10 11 -14 14 -15 9 -3 -3 10 0 20 7 25 8 4 10 3 5 -4 -4 -7 -2
-12 4 -12 6 0 8 -5 5 -10 -3 -5 -1 -10 4 -10 6 0 11 4 11 9 0 14 29 21 36 9 4
-6 3 -8 -4 -4 -6 3 -13 2 -16 -3 -4 -5 2 -8 11 -7 9 2 19 8 21 15 3 8 8 6 18
-6 9 -12 13 -13 14 -5 0 7 5 10 10 7 6 -4 18 -1 27 7 9 7 14 8 10 2 -4 -7 0
-14 7 -17 8 -3 17 -1 20 6 2 7 5 8 5 1 1 -13 63 -5 73 10 5 7 8 5 8 -5 0 -9 7
-16 15 -16 8 0 12 4 9 9 -3 4 0 8 5 8 6 0 11 -4 11 -9 0 -6 12 -6 29 -1 19 5
33 4 40 -3 8 -8 11 -7 11 2 0 11 3 11 15 1 12 -10 15 -9 16 6 0 18 1 18 9 -1
5 -11 9 -14 9 -7 1 7 6 10 12 7 18 -12 59 -13 59 -1 0 6 5 4 10 -4 6 -9 10
-11 10 -3 0 7 7 10 17 6 11 -5 14 -3 8 6 -5 8 2 7 17 -3 22 -14 26 -14 48 1
13 9 20 11 16 5 -8 -13 -8 -13 46 -16 26 -1 34 2 28 10 -7 7 -5 11 5 11 8 0
15 -5 15 -10 0 -5 8 -3 17 4 11 10 14 10 9 1 -4 -6 -2 -12 3 -12 6 0 11 6 11
13 0 8 4 7 10 -3 6 -10 10 -11 10 -2 0 6 5 12 11 12 5 0 8 -4 5 -9 -4 -5 2 -8
11 -6 10 2 22 4 26 4 5 1 5 7 2 13 -4 7 1 4 9 -6 9 -11 16 -15 16 -9 0 15 36
23 49 10 8 -8 11 -7 11 2 0 7 5 9 10 6 6 -4 7 -11 4 -17 -4 -7 -2 -8 5 -4 6 4
9 11 6 16 -3 4 2 11 11 14 8 3 13 2 10 -3 -3 -5 1 -12 10 -15 8 -3 13 -2 10 3
-3 5 3 11 14 14 10 3 21 0 24 -7 3 -7 7 -8 13 -1 4 6 24 11 43 13 47 3 63 6
78 15 7 5 12 3 12 -3 0 -7 6 -8 18 -2 9 4 27 7 40 6 12 0 22 2 22 7 0 4 8 8
18 8 79 3 122 7 122 13 0 5 32 16 77 24 14 2 82 23 103 31 8 3 21 7 28 9 7 1
25 10 39 19 17 12 23 13 18 4 -4 -8 4 -2 17 13 14 15 29 24 34 20 4 -4 2 1 -5
11 -12 15 -11 17 9 17 20 0 21 2 9 17 -8 9 -9 14 -4 11 14 -8 35 15 35 38 0 4
7 0 17 -7 15 -13 15 -12 6 6 -11 22 -6 48 7 40 4 -3 6 5 2 17 -4 16 -2 19 8
13 9 -5 11 -4 6 4 -6 9 -11 9 -22 0 -13 -11 -13 -9 -3 17 7 16 18 36 23 44 10
13 9 13 -6 1 -22 -17 -23 -8 -2 13 10 10 11 16 3 16 -8 0 -8 5 2 17 8 9 9 14
3 10 -7 -4 -14 -1 -17 6 -7 19 8 41 22 33 6 -4 11 -5 11 -2 0 3 -12 12 -27 20
l-28 15 23 7 c18 5 20 9 10 15 -10 7 -10 9 2 9 11 0 12 3 3 8 -19 12 -24 62
-7 69 13 5 13 7 2 14 -11 8 -11 10 0 18 10 6 5 12 -20 21 -18 6 -27 14 -20 17
6 2 12 12 12 20 0 9 8 22 18 29 16 13 16 14 -1 8 -15 -5 -17 -2 -13 20 2 14 2
25 -2 25 -23 -4 -33 3 -28 17 4 12 2 15 -9 11 -8 -4 -17 -1 -21 5 -4 7 -3 8 4
4 7 -4 12 -3 12 3 0 6 6 8 14 5 8 -3 17 0 22 7 5 8 3 10 -6 4 -8 -5 -11 -3 -8
6 3 8 -2 20 -9 28 -10 9 -11 17 -4 24 6 6 5 17 -5 32 -12 18 -12 25 -3 31 8 4
9 3 5 -4 -4 -7 -3 -12 3 -12 5 0 9 9 8 20 -1 14 -6 19 -16 15 -9 -3 -12 -3 -8
1 4 4 1 14 -6 23 -10 14 -10 14 3 4 13 -10 16 -8 15 12 0 13 -4 27 -8 31 -4 5
-5 0 -1 -11 4 -11 4 -17 0 -14 -4 4 -9 19 -12 35 -2 16 -7 34 -9 41 -2 7 1 15
7 19 7 5 8 2 3 -7 -5 -8 -4 -10 0 -6 11 9 16 39 7 33 -4 -2 -7 9 -7 24 0 16 4
26 10 22 6 -3 4 2 -4 11 -10 13 -10 17 -1 17 10 0 10 3 1 14 -14 17 -11 37 9
54 8 8 9 11 3 7 -8 -4 -13 1 -14 12 0 10 -2 26 -4 35 -2 10 2 21 7 25 7 4 8 1
3 -7 -5 -8 -4 -11 2 -7 13 8 10 46 -5 75 -11 18 -10 23 1 28 8 3 13 16 11 30
-1 13 1 24 5 24 4 0 6 18 5 40 -1 22 2 40 7 40 5 0 9 3 8 8 -2 15 14 52 23 52
5 0 6 5 3 10 -3 6 -1 10 5 10 6 0 8 5 4 12 -5 8 -2 9 10 5 12 -5 15 -3 9 6
-10 16 -13 37 -5 37 4 0 7 30 7 68 -1 37 3 75 7 84 5 9 4 19 -1 23 -5 3 -9 19
-9 36 1 17 -3 34 -8 37 -10 8 -17 28 -18 54 0 9 -4 14 -8 12 -4 -3 -8 4 -8 15
0 12 -6 21 -12 21 -9 0 -8 4 2 10 13 9 13 10 0 11 -8 1 -18 1 -21 1 -3 -1 -6
5 -6 13 0 8 5 12 10 8 5 -3 4 4 -2 15 -6 12 -19 25 -29 31 -9 5 -14 13 -10 17
4 4 0 13 -10 21 -9 8 -11 12 -4 8 6 -3 12 -1 12 4 0 6 -5 11 -10 11 -6 0 -5 6
2 14 7 8 17 11 22 8 5 -3 6 0 1 7 -5 9 -10 10 -18 2 -21 -21 -28 -11 -7 11 11
12 20 31 20 42 0 17 2 18 10 6 8 -13 10 -13 10 2 0 9 7 24 16 32 18 19 4 22
-16 4 -12 -11 -12 -10 -1 4 7 9 10 22 6 28 -4 6 -3 10 2 9 20 -3 23 3 12 24
l-12 22 24 -20 c13 -11 18 -13 12 -5 -16 18 -17 34 -1 24 7 -4 8 -3 4 5 -4 6
-11 9 -15 7 -4 -3 -8 5 -8 17 -2 17 0 19 7 7 8 -13 10 -12 10 3 0 10 5 15 11
12 6 -4 5 2 -2 14 -8 11 -20 22 -29 25 -12 3 -11 4 3 5 17 1 25 31 9 31 -5 0
-14 12 -20 26 -7 14 -8 23 -3 20 5 -3 7 3 4 14 -3 11 -10 20 -15 20 -5 0 -6
-5 -2 -12 4 -6 3 -8 -4 -5 -5 4 -9 18 -8 32 2 13 0 24 -3 23 -13 -3 -41 15
-36 23 7 11 -70 50 -80 41 -5 -4 -5 -1 -1 6 5 8 1 12 -11 12 -14 0 -15 2 -5 9
11 7 10 10 -3 15 -9 3 -21 4 -26 1 -5 -4 -6 1 -3 9 4 11 0 16 -10 16 -9 0 -16
5 -16 11 0 5 -3 8 -7 6 -9 -5 -34 18 -28 25 4 3 -16 7 -52 10 -7 1 -13 8 -13
17 0 11 -3 10 -14 -5 -14 -18 -15 -18 -22 -1 -4 11 -13 16 -21 12 -10 -3 -13
-1 -10 9 4 11 1 13 -10 9 -11 -4 -14 -2 -9 5 5 8 -4 12 -31 12 -28 0 -34 3
-23 10 11 7 11 10 2 10 -7 0 -11 4 -8 8 3 5 -1 9 -9 9 -8 0 -13 -3 -11 -6 2
-3 -3 -13 -12 -21 -14 -13 -15 -13 -10 1 4 9 -2 20 -13 27 -10 7 -16 18 -13
26 3 9 -3 20 -15 28 -12 7 -21 18 -21 25 0 6 -5 13 -11 15 -7 2 -12 19 -13 38
-2 26 -6 35 -18 34 -19 -2 -17 9 9 76 14 37 17 74 15 219 l-2 173 -32 60 c-34
64 -74 101 -123 113 -37 9 -95 12 -95 5z m-492 -342 c-8 -12 -21 -24 -29 -26
-11 -3 -11 -1 1 7 8 6 11 11 5 11 -5 0 -1 7 9 15 27 21 31 19 14 -7z m106 -27
c3 -4 -1 -8 -9 -8 -8 0 -12 4 -10 8 6 9 -41 40 -49 32 -3 -3 0 -13 6 -22 8
-11 6 -10 -8 2 -16 15 -17 19 -5 27 14 8 62 -17 75 -39z m-200 -29 c2 -4 -4
-9 -15 -9 -11 -1 -17 2 -14 8 7 11 22 12 29 1z m1411 -1231 c3 -5 2 -12 -3
-15 -5 -3 -9 1 -9 9 0 17 3 19 12 6z m-3291 -847 c3 -8 2 -12 -4 -9 -6 3 -10
10 -10 16 0 14 7 11 14 -7z m3352 -664 c0 -11 -4 -20 -8 -20 -10 0 -11 24 -1
33 9 9 9 10 9 -13z m-3186 -200 c0 -5 -2 -10 -4 -10 -3 0 -8 5 -11 10 -3 6 -1
10 4 10 6 0 11 -4 11 -10z m207 -257 c-4 -3 -1 -13 6 -22 11 -14 10 -14 -5 -2
-16 12 -16 31 -1 31 4 0 3 -3 0 -7z m203 -163 c0 -5 -2 -10 -4 -10 -3 0 -8 5
-11 10 -3 6 -1 10 4 10 6 0 11 -4 11 -10z"/>
<path d="M4071 3974 c0 -11 3 -14 6 -6 3 7 2 16 -1 19 -3 4 -6 -2 -5 -13z"/>
<path d="M1533 2603 c0 -7 4 -13 7 -13 4 0 12 6 18 13 8 10 6 13 -7 13 -10 0
-18 -6 -18 -13z"/>
<path d="M4405 2520 c4 -6 11 -8 16 -5 14 9 11 15 -7 15 -8 0 -12 -5 -9 -10z"/>
<path d="M4406 2407 c3 -10 9 -15 12 -12 3 3 0 11 -7 18 -10 9 -11 8 -5 -6z"/>
<path d="M1597 1113 c-4 -3 -7 -11 -7 -17 0 -6 5 -5 12 2 6 6 9 14 7 17 -3 3
-9 2 -12 -2z"/>
<path d="M1910 1080 c0 -5 5 -10 11 -10 5 0 7 5 4 10 -3 6 -8 10 -11 10 -2 0
-4 -4 -4 -10z"/>
<path d="M2434 1044 c-18 -14 -18 -15 4 -4 12 6 22 13 22 15 0 8 -5 6 -26 -11z"/>
</g>
</svg>
